<svg width="1200" height="760" viewBox="0 0 1200 760" fill="none" xmlns="http://www.w3.org/2000/svg">
  <rect width="1200" height="760" rx="28" fill="#F4F0E7"/>
  <text x="72" y="86" fill="#132333" font-family="Inter, Arial, sans-serif" font-size="42" font-weight="700">latchkeyd architecture flow</text>
  <text x="72" y="126" fill="#5A7388" font-family="Inter, Arial, sans-serif" font-size="22">One approved wrapper-to-binary handoff, with local trust checks in the middle.</text>

  <rect x="72" y="182" width="180" height="110" rx="22" fill="#E8EEF3"/>
  <rect x="314" y="182" width="220" height="110" rx="22" fill="#E8EEF3"/>
  <rect x="596" y="158" width="260" height="158" rx="24" fill="#2A4867"/>
  <rect x="918" y="182" width="210" height="110" rx="22" fill="#E8EEF3"/>

  <path d="M252 238H314" stroke="#2E7B59" stroke-width="8" stroke-linecap="round"/>
  <path d="M534 238H596" stroke="#2E7B59" stroke-width="8" stroke-linecap="round"/>
  <path d="M856 238H918" stroke="#2E7B59" stroke-width="8" stroke-linecap="round"/>

  <text x="104" y="232" fill="#132333" font-family="Menlo, Monaco, monospace" font-size="26" font-weight="700">Agent</text>
  <text x="346" y="232" fill="#132333" font-family="Menlo, Monaco, monospace" font-size="26" font-weight="700">Wrapper</text>
  <text x="346" y="264" fill="#5A7388" font-family="Menlo, Monaco, monospace" font-size="16">small explicit surface</text>
  <text x="628" y="218" fill="#F4F0E7" font-family="Menlo, Monaco, monospace" font-size="28" font-weight="700">latchkeyd</text>
  <text x="628" y="252" fill="#D2DEE7" font-family="Menlo, Monaco, monospace" font-size="16">verify wrapper path + hash</text>
  <text x="628" y="278" fill="#D2DEE7" font-family="Menlo, Monaco, monospace" font-size="16">verify binary path + hash</text>
  <text x="628" y="304" fill="#D2DEE7" font-family="Menlo, Monaco, monospace" font-size="16">inject approved env vars</text>
  <text x="950" y="232" fill="#132333" font-family="Menlo, Monaco, monospace" font-size="26" font-weight="700">Trusted tool</text>
  <text x="950" y="264" fill="#5A7388" font-family="Menlo, Monaco, monospace" font-size="16">receives one handoff</text>

  <rect x="72" y="420" width="236" height="138" rx="24" fill="#FFFFFF" stroke="#C6D2DC" stroke-width="3"/>
  <rect x="350" y="420" width="236" height="138" rx="24" fill="#FFFFFF" stroke="#C6D2DC" stroke-width="3"/>
  <rect x="628" y="420" width="236" height="138" rx="24" fill="#FFFFFF" stroke="#C6D2DC" stroke-width="3"/>
  <rect x="906" y="420" width="222" height="138" rx="24" fill="#FFFFFF" stroke="#D9B2B2" stroke-width="3"/>

  <path d="M714 316V388" stroke="#2E7B59" stroke-width="8" stroke-linecap="round"/>
  <path d="M190 420V360C190 336 210 316 234 316H596" stroke="#2E7B59" stroke-width="6" stroke-linecap="round"/>
  <path d="M468 420V360C468 336 488 316 512 316H596" stroke="#2E7B59" stroke-width="6" stroke-linecap="round"/>
  <path d="M1018 420V360C1018 336 996 316 972 316H856" stroke="#D98484" stroke-width="6" stroke-dasharray="12 12" stroke-linecap="round"/>

  <text x="102" y="468" fill="#132333" font-family="Inter, Arial, sans-serif" font-size="24" font-weight="700">Trust Manifest</text>
  <text x="102" y="504" fill="#5A7388" font-family="Menlo, Monaco, monospace" font-size="17">wrappers</text>
  <text x="102" y="530" fill="#5A7388" font-family="Menlo, Monaco, monospace" font-size="17">binaries</text>
  <text x="102" y="556" fill="#5A7388" font-family="Menlo, Monaco, monospace" font-size="17">exec policies</text>

  <text x="380" y="468" fill="#132333" font-family="Inter, Arial, sans-serif" font-size="24" font-weight="700">Secret Backend</text>
  <text x="380" y="504" fill="#5A7388" font-family="Menlo, Monaco, monospace" font-size="17">keychain</text>
  <text x="380" y="530" fill="#5A7388" font-family="Menlo, Monaco, monospace" font-size="17">file for demo / CI</text>

  <text x="658" y="468" fill="#132333" font-family="Inter, Arial, sans-serif" font-size="24" font-weight="700">Validation</text>
  <text x="658" y="504" fill="#5A7388" font-family="Menlo, Monaco, monospace" font-size="17">verify trust state</text>
  <text x="658" y="530" fill="#5A7388" font-family="Menlo, Monaco, monospace" font-size="17">exercise denial path</text>

  <text x="936" y="468" fill="#132333" font-family="Inter, Arial, sans-serif" font-size="24" font-weight="700">Denied path</text>
  <text x="936" y="504" fill="#8C5E5E" font-family="Menlo, Monaco, monospace" font-size="17">drift</text>
  <text x="936" y="530" fill="#8C5E5E" font-family="Menlo, Monaco, monospace" font-size="17">hijack</text>
  <text x="936" y="556" fill="#8C5E5E" font-family="Menlo, Monaco, monospace" font-size="17">bypass</text>
</svg>
